 <svg class="arrow" viewBox="0 0 68 47" aria-hidden="true">
                        <g>
                            <clipPath id="arrow-1-clip-path">
                                <path d="M64.18,37.83c.7,1.06,1.41,2.11,2.1,3.17a3.58,3.58,0,0,1,.5,2.83,2.58,2.58,0,0,1-2.62,2,2.68,2.68,0,0,1-2.65-1.38c-.31-.62-.77-1.17-1.15-1.77a52.13,52.13,0,0,0-7.78-9.13,82.87,82.87,0,0,0-9.8-8,48.71,48.71,0,0,0-16.07-7.32,49.64,49.64,0,0,0-9.37-1.53,14.61,14.61,0,0,0-1.48,0,.53.53,0,0,0-.37.18c-.13.21,0,.41.17.54,1.16.92,2.29,1.88,3.5,2.72a14.26,14.26,0,0,1,2.2,2,3.32,3.32,0,0,1,.14,4.26,1.32,1.32,0,0,1-.68.48,4,4,0,0,1-3.26-.32c-1-.69-1.94-1.41-2.9-2.12-.56-.42-1.09-.89-1.68-1.27-2.38-1.51-4.61-3.24-7-4.69a33,33,0,0,1-3.38-2.53,4.34,4.34,0,0,1-1.43-3,2,2,0,0,1,.77-1.68,3.77,3.77,0,0,1,1.64-.95A4.27,4.27,0,0,0,5.61,8.91C7.28,7,9,5.11,10.67,3.2a9.76,9.76,0,0,1,1.94-1.63,3.09,3.09,0,0,1,3-.07.92.92,0,0,1,.46.41,3.49,3.49,0,0,1,.15,3.8,16.82,16.82,0,0,1-1.11,1.55c-.6.79-1.23,1.55-1.82,2.34-.32.43-.12.83.43.85.78,0,1.56,0,2.33.06a52.88,52.88,0,0,1,9.23,1.1,59.64,59.64,0,0,1,16.2,6A83.1,83.1,0,0,1,56.07,28.42a72.27,72.27,0,0,1,5.55,5.79,34.64,34.64,0,0,1,2.56,3.62Z"></path>
                            </clipPath>
                            <path class="arrow-1-path arrow-body" pathLength="1" d="M63.91,42.93C48.63,19.28,30.7,12,5.16,13.35" style="stroke-dashoffset: 0;"></path>
                            <path class="arrow-1-path arrow-head" pathLength="1" d="M13.67,4.56c-4,4.25-8.52,8.49-8.52,9.05S16.67,21.79,18.91,24" style="stroke-dashoffset: 0;"></path>
                        </g>
                    </svg>