                <svg width="269.1082475494444" height="80" viewBox="0 0 269.1082475494444 80" class="css-1j8o68f" style="height: 47px;width: 120px;vertical-align: middle;"><defs id="SvgjsDefs1564"></defs><g id="SvgjsG1565" featurekey="nRdZyp-0" transform="matrix(0.9411828909391257,0,0,0.9411828909391257,-21.497812951820315,-2.3525528666792805)" fill="#66da5b"><path xmlns="http://www.w3.org/2000/svg" d="M65.532,53.661c2.473-2.341,2.081-5.645-0.869-7.341L59.1,43.118c-2.95-1.697-4.723-5.797-3.941-9.109l6.699-28.398  c0.781-3.312-0.602-4.108-3.073-1.767L24.467,36.339c-2.472,2.341-2.08,5.644,0.87,7.342l5.562,3.2  c2.949,1.698,4.724,5.798,3.943,9.109l-6.701,28.398c-0.78,3.312,0.602,4.107,3.074,1.767L65.532,53.661z"></path></g><g id="SvgjsG1566" featurekey="Q4qmbg-0" transform="matrix(3.35025367735834,0,0,3.35025367735834,65.39187976849242,-10.153298444668593)" fill="#66da5b"><path d="M3.48 13.24 c0 1.18 5 0.62 5 3.74 c0 2.04 -1.8 3.18 -4.04 3.18 c-1.42 0 -2.84 -0.7 -3.96 -1.82 l1.94 -1.94 c0.56 0.68 1.36 1.2 2.02 1.26 s1.22 -0.22 1.32 -0.52 c0.24 -0.76 -1.14 -0.8 -1.56 -0.92 c-1.58 -0.48 -3.42 -1.14 -3.42 -3.1 c0 -2.34 2.44 -3.14 3.66 -3.14 c1.4 0 2.82 0.64 3.96 1.8 l-1.92 1.92 c-0.52 -0.68 -1.42 -1.22 -2.04 -1.22 c-0.32 0 -0.96 0.12 -0.96 0.76 z M19.84770833333333 15.08 c0 2.92 -1.94 5.08 -4.84 5.08 c-0.6 0 -1.78 -0.36 -2.24 -0.82 l0 5.3 l-2.96 0 l0 -14.52 l2.96 0 l0 0.7 c0.42 -0.5 1.18 -0.84 2.04 -0.84 c2.9 0 5.04 2.18 5.04 5.1 z M16.867708333333333 15.08 c0 -1.58 -1.02 -2.86 -2.26 -2.86 c-0.76 0 -1.5 0.56 -1.9 1.36 c-0.18 0.4 -0.32 0.96 -0.32 1.5 c0 0.56 0.12 1.06 0.32 1.48 c0.42 0.82 1.12 1.36 1.9 1.36 c1.24 0 2.26 -1.28 2.26 -2.84 z M25.755416666666665 12.42 c-1.22 0 -2.24 1.08 -2.24 2.66 c0 1.56 1.02 2.64 2.24 2.64 c1.24 0 2.26 -1.08 2.26 -2.64 c0 -1.58 -1.02 -2.66 -2.26 -2.66 z M25.755416666666665 9.98 c2.9 0 5.22 2.18 5.22 5.1 s-2.32 5.08 -5.22 5.08 c-2.88 0 -5.2 -2.16 -5.2 -5.08 s2.32 -5.1 5.2 -5.1 z M35.663124999999994 15.8 c0 0.72 -0.02 1.92 1.08 1.92 c0.54 0 0.88 -0.22 1.26 -0.5 l0 2.44 c-0.46 0.26 -1.02 0.5 -1.62 0.5 c-2.54 0 -3.68 -1.08 -3.68 -4.36 l0 -3.24 l-1.1 0 l0 -2.44 l1.1 0 l0 -2.84 l2.96 0 l0 2.84 l2.34 0 l0 2.44 l-2.34 0 l0 3.24 z M42.67083333333333 5.119999999999999 l0 14.88 l-2.98 0 l0 -14.88 l2.98 0 z M51.138541666666654 10.12 l3.08 0 s-2.56 6.02 -4.06 9.6 c-1.34 3.18 -2.32 5.1 -4.46 5.1 c-0.88 0 -1.94 -0.86 -2.24 -1.1 l0.86 -2.44 c0.4 0.38 0.92 0.62 1.34 0.62 c1.02 0 1.56 -2.06 1.9 -3.26 l-3.62 -8.52 l3.08 0 l2.06 4.94 c0.66 -1.6 1.42 -3.42 2.06 -4.94 z M58.46624999999999 15.8 c0 0.72 -0.02 1.92 1.08 1.92 c0.54 0 0.88 -0.22 1.26 -0.5 l0 2.44 c-0.46 0.26 -1.02 0.5 -1.62 0.5 c-2.54 0 -3.68 -1.08 -3.68 -4.36 l0 -3.24 l-1.1 0 l0 -2.44 l1.1 0 l0 -2.84 l2.96 0 l0 2.84 l2.34 0 l0 2.44 l-2.34 0 l0 3.24 z"></path></g></svg>
